<svg xmlns="http://www.w3.org/2000/svg" xmlns:xlink="http://www.w3.org/1999/xlink" version="1.1" x="0px" y="0px" viewBox="0 0 100 100" style="enable-background:new 0 0 100 100;" xml:space="preserve"><g><path d="M89.527,95.165c-4.137-1.278-5.791-5.413-5.791-5.413s-1.131-3.089-4.061-5.979c-0.783-0.771-2.34-3.512-0.979-5.519   c0.221,0.866,0.611,2.074,2.074,3.333c3.459,2.976,4,5.306,4.942,7.921C86.482,91.639,87.647,94.047,89.527,95.165z M46.068,14.289   H31.984v13.569C31.984,27.858,33.788,17.295,46.068,14.289z M99.906,9.756v42.482c0,1.31-1.041,2.37-2.328,2.37H67.185v4.924   c10.702,0.267,18.665,1.276,18.665,2.481c0,1.409-10.874,2.551-24.287,2.551c-13.415,0-24.289-1.142-24.289-2.551   c0-1.205,7.963-2.215,18.666-2.481v-4.924H25.545c-1.286,0-2.328-1.061-2.328-2.37V9.756c0-1.309,1.042-2.37,2.328-2.37h72.033   C98.865,7.387,99.906,8.448,99.906,9.756z M63.692,50.709c0-0.808-0.448-1.536-1.169-1.901l-0.104-0.053v0.801l0.027,0.021   c0.351,0.274,0.552,0.688,0.552,1.132c0,0.793-0.645,1.438-1.437,1.438c-0.793,0-1.438-0.645-1.438-1.438   c0-0.444,0.201-0.857,0.551-1.132l0.028-0.021v-0.801L60.6,48.808c-0.721,0.365-1.168,1.094-1.168,1.901   c0,1.175,0.955,2.131,2.131,2.131C62.736,52.84,63.692,51.884,63.692,50.709z M61.551,50.824c0.238,0,0.433-0.194,0.433-0.433   v-2.287c0-0.24-0.194-0.433-0.433-0.433c-0.24,0-0.434,0.193-0.434,0.433v2.287C61.117,50.63,61.311,50.824,61.551,50.824z    M94.892,11.185H28.232v35.02h66.659V11.185z M21.634,28.853v6.505H3.941c-0.109,0-0.198-0.088-0.198-0.197v-6.308H21.634z    M18.198,33.615c0-0.219-0.177-0.396-0.396-0.396h-4.231c-0.219,0-0.396,0.177-0.396,0.396c0,0.218,0.177,0.396,0.396,0.396h4.231   C18.021,34.011,18.198,33.833,18.198,33.615z M21.634,28.062H3.743v-6.767h17.891V28.062z M18.198,26.259   c0-0.218-0.177-0.396-0.396-0.396h-4.231c-0.219,0-0.396,0.177-0.396,0.396c0,0.219,0.177,0.396,0.396,0.396h4.231   C18.021,26.655,18.198,26.478,18.198,26.259z M21.634,20.504H3.743v-6.308c0-0.109,0.088-0.198,0.198-0.198h17.693V20.504z    M18.198,18.779c0-0.219-0.177-0.396-0.396-0.396h-4.231c-0.219,0-0.396,0.177-0.396,0.396c0,0.218,0.177,0.396,0.396,0.396h4.231   C18.021,19.175,18.198,18.998,18.198,18.779z M15.674,52.956c0.342,0,0.62-0.278,0.62-0.62v-3.272c0-0.343-0.278-0.62-0.62-0.62   c-0.343,0-0.62,0.277-0.62,0.62v3.272C15.054,52.678,15.332,52.956,15.674,52.956z M17.067,50.07l-0.149-0.076v1.146l0.039,0.031   c0.502,0.393,0.79,0.982,0.79,1.619c0,1.134-0.923,2.057-2.057,2.057c-1.134,0-2.057-0.923-2.057-2.057   c0-0.637,0.288-1.227,0.79-1.619l0.04-0.031v-1.146l-0.149,0.076c-1.032,0.522-1.672,1.564-1.672,2.721   c0,1.681,1.368,3.049,3.049,3.049s3.049-1.368,3.049-3.049C18.74,51.635,18.099,50.593,17.067,50.07z M96.15,94.691   c-0.977,0.348-1.881,0.576-2.719,0.707c-4.408,0.539-5.656-2.451-6.803-5.634c-0.93-2.582-2.088-5.794-5.742-8.89   c-1.217-1.032-1.783-2.059-1.832-3.046c-0.023-0.474,0.729-1.195,1.781-1.763c-0.537-0.878-1.727-2.369-4.133-3.694   c-3.48-1.919-10.246-3.864-22.716-2.242c-2.318,0.302-4.529,0.534-6.628,0.697c0.392,1.144,0.593,2.449,0.511,4.927h24.692   c1.168,0,1.551,0.403,1.582,0.501l5.236,14.538c0.039,0.239,0,0.431-0.087,0.586c0,0-2.267,3.355-3.769,3.355   c-1.393,0-72.391,0-73.819,0c-1.614,0-1.614-3.355-1.613-3.355c0.011-0.154,0.094-0.347,0.285-0.586l15.056-14.538   c0.369-0.37,1.44-0.501,1.92-0.501h28.564c0.081-2.501-0.142-3.752-0.587-4.788c-5.545,0.323-10.252,0.132-14.056-0.578   c-3.278-0.612-5.901-1.612-7.841-2.978c-3.079,0.021-5.684-0.381-7.195-1.938c-0.705-0.727-1.127-1.658-1.269-2.781H5.936   C2.657,62.691,0,59.8,0,56.231V10.999c0-3.568,2.657-6.46,5.936-6.46h21.951c1.322,0,2.542,0.471,3.529,1.266h-7.453   c-1.285,0-2.328,1.061-2.328,2.369v5.034H3.941c-0.546,0-0.989,0.442-0.989,0.989v20.965c0,0.546,0.443,0.989,0.989,0.989h17.693   v17.474c0,1.309,1.042,2.369,2.328,2.369h9.86v0.238c0,3.568-2.658,6.46-5.936,6.46h-5.963c0.235,0.569,0.586,1.172,1.107,1.77   c0.288,0.33,0.629,0.661,1.032,0.986c1.536-0.039,3.191-0.169,4.828-0.298c5.958-0.468,12.711-0.999,16.383,2.398   c0.448,0.415,0.841,0.88,1.177,1.394c2.226-0.159,4.648-0.403,7.286-0.746c21.511-2.799,27.511,4.519,28.95,7.16   c0.075-0.018,0.15-0.034,0.225-0.049c0.629,0.224,1.438,0.628,2.306,1.366c-0.286,0.7,0.046,1.501,0.745,1.792   c0.012,0.004,1.152,0.544,1.98,2.335c0.232,0.504,0.73,0.801,1.251,0.801c0.193,0,0.39-0.041,0.577-0.128   c0.69-0.318,0.991-1.137,0.672-1.828c-1.277-2.767-3.206-3.634-3.422-3.723c-0.427-0.178-0.891-0.124-1.256,0.103   c-0.459-0.391-0.903-0.694-1.322-0.937c4.746-0.424,7.688,1.727,10.806,4.604C98.927,83.088,103.341,92.134,96.15,94.691z    M20.42,52.279c0-2.612-2.118-4.73-4.729-4.73c-2.612,0-4.729,2.118-4.729,4.73c0,2.611,2.117,4.729,4.729,4.729   C18.302,57.008,20.42,54.891,20.42,52.279z M21.26,65.38c-0.719-0.917-1.152-1.839-1.403-2.688h-2.91   c0.11,0.581,0.337,1.055,0.694,1.422C18.373,64.868,19.663,65.235,21.26,65.38z M44.053,69.084   c-0.036-0.035-0.069-0.07-0.106-0.104c-3.044-2.817-9.346-2.321-14.904-1.885c-0.619,0.049-1.233,0.097-1.841,0.141   C30.537,68.588,35.793,69.472,44.053,69.084z M42.227,78.563h3.566c0.164,0,0.171-0.055,0.174-0.063l0.402-1.394   c0.002-0.008,0.018-0.057-0.133-0.057h-3.429c-0.142,0-0.168,0.049-0.171,0.057l-0.539,1.394   C42.093,78.508,42.071,78.563,42.227,78.563z M41.095,81.536h3.822c0.164,0,0.185-0.067,0.188-0.077l0.487-1.668   c0.002-0.01,0.02-0.069-0.14-0.069h-3.667c-0.156,0-0.182,0.06-0.186,0.069l-0.641,1.668   C40.955,81.469,40.934,81.536,41.095,81.536z M40.504,82.647l-0.758,1.989c-0.004,0.012-0.028,0.092,0.142,0.092h4.079   c0.182,0,0.201-0.08,0.204-0.092l0.586-1.989c0.003-0.012,0.021-0.082-0.146-0.082h-3.906   C40.533,82.565,40.508,82.636,40.504,82.647z M35.758,78.563h3.565c0.148,0,0.18-0.055,0.184-0.063l0.63-1.394   c0.003-0.008,0.034-0.057-0.123-0.057h-3.43c-0.146,0-0.176,0.049-0.181,0.057l-0.767,1.394   C35.633,78.508,35.602,78.563,35.758,78.563z M34.163,81.536h3.821c0.169,0,0.196-0.067,0.201-0.077l0.743-1.668   c0.004-0.01,0.027-0.069-0.128-0.069h-3.668c-0.16,0-0.191,0.06-0.196,0.069l-0.897,1.668C34.032,81.469,34,81.536,34.163,81.536z    M37.525,82.565h-3.907c-0.179,0-0.207,0.07-0.213,0.082l-1.045,1.989c-0.006,0.012-0.051,0.092,0.129,0.092h4.078   c0.173,0,0.212-0.08,0.217-0.092l0.873-1.989C37.663,82.636,37.691,82.565,37.525,82.565z M29.289,78.563h3.566   c0.147,0,0.188-0.055,0.193-0.063l0.858-1.394c0.005-0.008,0.031-0.057-0.113-0.057h-3.43c-0.143,0-0.19,0.057-0.19,0.057   l-0.994,1.394C29.173,78.508,29.136,78.563,29.289,78.563z M28.271,79.791l-1.154,1.668c-0.007,0.01-0.048,0.077,0.113,0.077h3.822   c0.168,0,0.206-0.067,0.212-0.077l1-1.668c0.006-0.01,0.049-0.069-0.118-0.069h-3.667C28.315,79.722,28.277,79.781,28.271,79.791z    M30.438,82.565h-3.906c-0.157,0-0.218,0.07-0.226,0.082l-1.332,1.989c-0.009,0.012-0.056,0.092,0.115,0.092h4.079   c0.181,0,0.223-0.08,0.23-0.092l1.16-1.989C30.566,82.636,30.622,82.565,30.438,82.565z M22.82,78.563h3.566   c0.159,0,0.198-0.055,0.205-0.063l1.085-1.394c0.007-0.008,0.028-0.057-0.104-0.057h-3.429c-0.144,0-0.193,0.049-0.2,0.057   l-1.221,1.394C22.713,78.508,22.667,78.563,22.82,78.563z M21.607,79.791l-1.412,1.668c-0.009,0.01-0.061,0.077,0.102,0.077h3.821   c0.184,0,0.217-0.067,0.225-0.077l1.257-1.668c0.008-0.01,0.062-0.069-0.107-0.069h-3.667   C21.654,79.722,21.615,79.781,21.607,79.791z M23.351,82.565h-3.906c-0.163,0-0.228,0.07-0.237,0.082l-1.619,1.989   c-0.01,0.012-0.061,0.092,0.103,0.092h4.079c0.183,0,0.235-0.08,0.245-0.092l1.447-1.989C23.47,82.636,23.534,82.565,23.351,82.565   z M16.351,78.563h3.566c0.079,0.02,0.207-0.055,0.215-0.063l1.313-1.394c0.008-0.008,0.011-0.016,0.01-0.022   s-0.006-0.013-0.015-0.019c-0.009-0.005-0.021-0.009-0.036-0.012c-0.016-0.003-0.033-0.004-0.054-0.004H17.92   c-0.021,0-0.154,0.008-0.209,0.057l-1.449,1.394C16.206,78.557,16.329,78.563,16.351,78.563z M13.364,81.536h3.821   c0.19,0,0.227-0.067,0.236-0.077l1.514-1.668c0.009-0.01,0.074-0.069-0.097-0.069h-3.667c-0.187,0-0.219,0.06-0.229,0.069   l-1.668,1.668C13.264,81.469,13.202,81.536,13.364,81.536z M10.292,84.729h4.078c0.215,0,0.246-0.078,0.258-0.092l1.734-1.989   c0.01-0.012,0.061-0.082-0.098-0.082h-3.907c-0.181,0-0.238,0.07-0.25,0.082l-1.906,1.989C10.19,84.648,10.12,84.729,10.292,84.729   z M12.937,86.412H8.73c-0.189,0-0.262,0.086-0.274,0.1l-2.228,2.472c-0.015,0.016-0.102,0.115,0.089,0.115h4.401   c0.207,0,0.273-0.1,0.286-0.115l2.033-2.472C13.049,86.497,13.125,86.412,12.937,86.412z M51.186,86.412c0,0-34.719,0-34.915,0   c-0.197,0-0.251,0.086-0.262,0.1l-1.907,2.472c-0.012,0.016-0.085,0.115,0.104,0.115h36.526c0.193,0,0.209-0.1,0.212-0.115   l0.41-2.472C51.355,86.498,51.378,86.412,51.186,86.412z M51.698,82.565h-3.906c-0.172,0-0.187,0.07-0.189,0.082l-0.471,1.989   c-0.002,0.012-0.023,0.092,0.155,0.092h4.078c0.176,0,0.19-0.08,0.191-0.092l0.299-1.989   C51.857,82.636,51.883,82.565,51.698,82.565z M62.086,84.729h4.078c0.182,0,0.167-0.08,0.165-0.092l-0.274-1.989   c-0.003-0.012-0.16-0.082-0.183-0.082h-3.907c-0.17,0-0.165,0.07-0.164,0.082l0.104,1.989   C61.905,84.648,61.896,84.729,62.086,84.729z M66.785,88.983l-0.234-2.472c-0.002-0.014,0.017-0.1-0.193-0.1H62.15   c-0.174,0-0.18,0.086-0.18,0.1l0.04,2.472c0,0.016-0.003,0.115,0.192,0.115h4.4C66.793,89.099,66.787,88.999,66.785,88.983z    M73.988,86.412h-4.207c-0.178,0-0.169,0.086-0.166,0.1l0.363,2.472c0.002,0.016,0.002,0.115,0.207,0.115h4.401   c0.186,0,0.171-0.1,0.167-0.115l-0.558-2.472C74.192,86.498,74.156,86.412,73.988,86.412z M72.064,79.722h-10.32   c-0.141,0-0.154,0.06-0.152,0.069l0.131,1.668c0,0.01,0.011,0.077,0.172,0.077h6.765l0.63,3.101   c0.002,0.012,0.01,0.092,0.195,0.092h4.078c0.184,0,0.156-0.08,0.152-0.092l-1.467-4.846   C72.244,79.781,72.237,79.722,72.064,79.722z M67.56,77.105l0.372,1.394c0.002,0.009,0.018,0.063,0.172,0.063h3.564   c0.154,0,0.137-0.055,0.134-0.063l-0.508-1.394c-0.003-0.008-0.011-0.057-0.171-0.057h-3.43   C67.551,77.049,67.557,77.098,67.56,77.105z M61.329,77.105l0.144,1.394c0.002,0.009-0.001,0.063,0.162,0.063h3.564   c0.154,0,0.145-0.055,0.144-0.063l-0.28-1.394c-0.002-0.008-0.002-0.057-0.161-0.057h-3.43   C61.32,77.049,61.328,77.098,61.329,77.105z M55.015,78.499c-0.001,0.009,0.003,0.063,0.15,0.063h3.565   c0.157,0,0.153-0.055,0.153-0.063l-0.053-1.394c-0.001-0.008-0.001-0.057-0.151-0.057h-3.43c-0.141,0-0.152,0.049-0.152,0.057   L55.015,78.499z M54.961,81.536h3.821c0.175,0,0.165-0.067,0.165-0.077l-0.027-1.668c0-0.01,0.01-0.069-0.161-0.069h-3.667   c-0.19,0-0.164,0.06-0.164,0.069l-0.127,1.668C54.801,81.469,54.795,81.536,54.961,81.536z M54.687,84.729h4.078   c0.172,0,0.179-0.08,0.179-0.092l0.012-1.989c0-0.012-0.026-0.082-0.17-0.082h-3.906c-0.178,0-0.176,0.07-0.178,0.082l-0.183,1.989   C54.518,84.648,54.5,84.729,54.687,84.729z M54.219,89.099h4.4c0.202,0,0.196-0.1,0.197-0.115l0.09-2.472   c0-0.014-0.002-0.1-0.181-0.1H54.52c-0.18,0-0.192,0.086-0.193,0.1l-0.284,2.472C54.04,88.999,54.035,89.099,54.219,89.099z    M48.696,78.563h3.566c0.164,0,0.162-0.055,0.163-0.063l0.175-1.394c0.001-0.008,0.009-0.057-0.142-0.057h-3.429   c-0.149,0-0.161,0.049-0.162,0.057l-0.312,1.394C48.554,78.508,48.548,78.563,48.696,78.563z M48.028,81.536h3.821   c0.154,0,0.176-0.067,0.177-0.077l0.229-1.668c0.001-0.01,0.018-0.069-0.15-0.069h-3.667c-0.159,0-0.173,0.06-0.176,0.069   l-0.382,1.668C47.878,81.469,47.872,81.536,48.028,81.536z"></path></g></svg>