<svg xmlns:dc="http://purl.org/dc/elements/1.1/" xmlns:cc="http://creativecommons.org/ns#" xmlns:rdf="http://www.w3.org/1999/02/22-rdf-syntax-ns#" xmlns:svg="http://www.w3.org/2000/svg" xmlns="http://www.w3.org/2000/svg" xmlns:sodipodi="http://sodipodi.sourceforge.net/DTD/sodipodi-0.dtd" xmlns:inkscape="http://www.inkscape.org/namespaces/inkscape" width="120" height="120" version="1.1" x="0px" y="0px" viewBox="0 0 100 100"><g transform="translate(0,-952.36218)"><path d="m 59,957.3622 c -5.49916,0 -10,4.50084 -10,10 0,3.86414 2.23931,7.21192 5.46875,8.875 L 50.5,992.08095 c -1.42653,-0.45264 -2.92715,-0.71875 -4.5,-0.71875 -3.47156,0 -6.67183,1.19425 -9.21875,3.1875 l -15.4375,-13 C 22.38633,980.08099 23,978.28848 23,976.3622 c 0,-4.94687 -4.05313,-9 -9,-9 -4.9468802,0 -9.0000002,4.05313 -9.0000002,9 0,4.94688 4.05312,9 9.0000002,9 1.56112,0 3.02869,-0.417 4.3125,-1.125 l 15.65625,13.1875 C 32.10537,999.92425 31,1003.0175 31,1006.3622 c 0,3.407 1.16695,6.5391 3.09375,9.0625 l -10.15625,10.1875 c -1.9647,-1.4048 -4.35016,-2.25 -6.9375,-2.25 -6.60373,0 -12.0000002,5.3963 -12.0000002,12 0,6.6037 5.3962702,12 12.0000002,12 6.60373,0 12,-5.3963 12,-12 0,-2.5873 -0.8452,-4.9728 -2.25,-6.9375 l 10.15625,-10.1563 c 2.5267,1.9359 5.67782,3.0938 9.09375,3.0938 5.00484,0 9.42873,-2.494 12.15625,-6.2813 l 15.0625,7.125 c -0.13921,0.6958 -0.21875,1.421 -0.21875,2.1563 0,6.0514 4.94856,11 11,11 6.05144,0 11,-4.9486 11,-11 0,-6.0515 -4.94856,-11 -11,-11 -3.91335,0 -7.36161,2.0886 -9.3125,5.1875 l -14.65625,-6.9688 C 60.63986,1009.9525 61,1008.1983 61,1006.3622 c 0,-1.4575 -0.23407,-2.8534 -0.625,-4.1875 l 14.875,-9.90625 c 1.65334,1.88599 4.06246,3.09375 6.75,3.09375 4.94688,0 9,-4.05312 9,-9 0,-4.94687 -4.05312,-9 -9,-9 -4.94687,0 -9,4.05313 -9,9 0,0.8119 0.10811,1.59397 0.3125,2.34375 l -14.59375,9.75 c -1.15888,-1.85311 -2.70461,-3.45937 -4.53125,-4.65625 l 4.125,-16.46875 c 0.22521,0.0154 0.45858,0.0312 0.6875,0.0312 5.49916,0 10,-4.50084 10,-10 -0.19698,-6.65914 -5.19125,-9.72065 -10,-9.99995 z" style="text-indent:0;text-transform:none;direction:ltr;block-progression:tb;baseline-shift:baseline;color:#000000;enable-background:accumulate;" fill="#000000" fill-opacity="1" stroke="none" marker="none" visibility="visible" display="inline" overflow="visible"></path></g></svg>